<?xml version="1.0" encoding="utf-8"?>
<!-- Generator: Adobe Illustrator 22.1.0, SVG Export Plug-In . SVG Version: 6.00 Build 0)  -->
<svg version="1.1" id="Layer_1" xmlns="http://www.w3.org/2000/svg" xmlns:xlink="http://www.w3.org/1999/xlink" x="0px" y="0px"
	 viewBox="0 0 1500 500" style="enable-background:new 0 0 1500 500;" xml:space="preserve">
<style type="text/css">
	.st0{fill:#231F20;}
	.st1{fill:#ED1C24;}
	.st2{fill:#FFFFFF;}
	.st3{fill:#D71C24;}
	.st4{opacity:0.46;}
	.st5{fill:#F7D51D;}
	.st6{fill:#2B3990;}
</style>
<circle class="st0" cx="1063.7" cy="158.5" r="151.2"/>
<circle class="st1" cx="1063.7" cy="158.5" r="137.6"/>
<path class="st2" d="M1144.2,201.9c-13.9,6.7-25.6,8-41.3,9.6c-27.5,2.8-73.1,7.4-115.5-14.6c-43.6-22.6-59.9-61-68.2-55.9
	c-5.5,3.3-1.1,21.3,6,49.9c5.8,23.5,8.7,35.3,13.9,45.9c20.3,40.6,65.1,55.7,74.7,59c61.9,20.9,114.8-9.4,121-13.1
	c28.9-17.2,43.8-40,52-52.7c12.8-19.6,27.4-50.5,20.2-56.7c-3.6-3.1-11.9,1-28.4,9.1C1160.9,190.9,1155.6,196.4,1144.2,201.9z"/>
<g>
	<path class="st0" d="M1063.7,20.9c76,0,137.6,61.6,137.6,137.6s-61.6,137.6-137.6,137.6s-137.6-61.6-137.6-137.6
		S987.7,20.9,1063.7,20.9 M1063.7,8.9c-40,0-77.5,15.6-105.8,43.8c-28.3,28.3-43.8,65.8-43.8,105.8S929.7,236,958,264.3
		c28.3,28.3,65.8,43.8,105.8,43.8s77.5-15.6,105.8-43.8c28.3-28.3,43.8-65.8,43.8-105.8s-15.6-77.5-43.8-105.8
		C1141.2,24.5,1103.7,8.9,1063.7,8.9L1063.7,8.9z"/>
</g>
<path class="st0" d="M928.7,128.8c7.3,9.4,50.2,63,127,71.1c82.7,8.7,138.6-42.3,146.7-49.9c0.8,12.6,1.7,25.2,2.5,37.8
	c-12.3,9.3-69.1,50.2-149.7,41.8c-79.3-8.2-126.2-58.3-136.6-70.1C921.9,149.3,925.3,139,928.7,128.8z"/>
<circle class="st0" cx="1049.9" cy="213.7" r="47.6"/>
<circle class="st2" cx="1049.9" cy="213.7" r="33.7"/>
<path class="st3" d="M1094,36.1c11.7,1.8,27.7,6.1,43.8,16.6c45.1,29.6,51.5,83.2,52.4,92.2c-3.3,2-6.6,4-10.1,6
	c-5,2.9-9.9,5.6-14.6,8.1c0.4-12.5,0.1-53-28.7-88.7C1122,52,1105.2,41.7,1094,36.1z"/>
<path class="st3" d="M1134.8,205.1"/>
<g class="st4">
	<path class="st0" d="M189.5,252.5c10.1-3.3,19.6-6.4,28.5-9.3c8.9-2.8,18.3-5.5,28.1-8.1c9.9-2.5,19.3-4.6,28.3-6.1
		c6.9-1.2,14-1.8,21.3-1.8c12.1,0,20,0.3,23.8,1c5.7,1.1,11,2.8,16.1,5.3c5.1,2.4,9.6,5.7,13.5,9.7c4,4.1,7.2,8.8,9.7,14.3
		c1,2.3,1.5,4.6,1.5,7.1c0,9.4-5.1,20.9-15.3,34.6c-10.2,13.7-20.5,25.6-30.8,35.8c-10.3,10.2-18,17.5-23.1,21.9l22.5,79l-32.8,23.7
		l-57.5-164.2c-0.2,0-1,0.8-2.4,2.4c-1.4,1.6-3.3,3.7-5.6,6.2c-2.3,2.5-3.7,4.1-4.3,4.7c-0.3,0-1.1-1.8-2.4-5.4
		c-1.4-3.6-3.2-8.6-5.5-15c-2.3-6.4-4.9-13.5-7.8-21.3C192.5,259.5,190.5,254.5,189.5,252.5z M270.6,287.4l10.3,37
		c5.2-5.3,11.6-12.4,19.3-21.5c7.7-9.1,11.5-15.7,11.5-19.8c0-1.6-0.7-2.5-2-2.8c-3.8-0.8-7.5-1.3-11.1-1.3
		C287.5,279,278.2,281.8,270.6,287.4z"/>
	<path class="st0" d="M469.3,315.9c5.9,3.2,10.8,7.5,14.5,12.8c3.7,5.4,6.4,11.4,8.1,18.2c1.7,6.7,2.6,13.7,2.6,21
		c0,6-0.5,11.8-1.4,17.4c-1,5.6-2.3,10.7-3.9,15.4c-1.7,4.7-3.6,8.6-5.9,11.9c-5.3,7.9-10.9,14.6-16.9,20.3
		c-6,5.7-12.1,10.2-18.4,13.7s-12.5,6-18.6,7.6c-6.1,1.6-12.2,2.4-18.2,2.4c-7.1,0-13.8-1.1-20.2-3.3c-6.4-2.2-11.8-5.1-16.3-8.7
		c-7.4-6.2-13.2-14.5-17.4-25c-4.2-10.5-6.3-21.6-6.3-33.3c0-20.1,5.8-36.4,17.4-48.7c9.9-10.6,20.2-18.6,30.8-24
		c10.6-5.4,21.5-8.1,32.6-8.1c6.5,0,12.8,0.8,18.8,2.4C456.4,309.7,462.7,312.3,469.3,315.9z M461.9,337c-1.4,6.3-4.5,11.9-9.2,16.8
		c-4.7,4.8-9.3,7.3-13.8,7.3c-2.3,0-4.3-0.6-6-1.8c-2.5-2-3.8-5.5-3.8-10.5c0-3.8,1.3-7.6,3.8-11.4c2.5-3.8,6.6-6.7,12.1-8.9
		c-5.5,0-10.8,1-16,3.1c-5.1,2.1-9.5,4.8-13.2,8.1c-3.7,3.3-6.6,7-8.8,11.1c-2.2,4.1-3.3,8.3-3.3,12.5c0,7.8,3.6,13.9,10.8,18.5
		c6.7,4.3,13,6.4,19,6.4c5.9,0,11.2-2,15.8-5.9c4.6-4,8.1-9.1,10.5-15.3c2.4-6.2,3.6-12.4,3.6-18.5
		C463.4,344.3,462.9,340.5,461.9,337z"/>
	<path class="st0" d="M488.6,242.3l63.6-26.7l9.3,144.7l52.4-28.7l54.4,8.1l-70.9,54.4l66.8,50.4l3,50.2l-98.5-70.8l3.1,61.5
		l-59.6,1.1L500.9,269l-18.4,4.1L488.6,242.3z"/>
	<path class="st0" d="M770.3,382.3l30.2,36.4c-2.4,7-8.2,13.4-17.2,19.3c-9.1,5.8-19.8,10.5-32.3,13.8c-12.5,3.4-24.9,5.1-37.4,5.1
		c-11,0-20.9-1.5-29.5-4.4c-8.6-2.9-15.3-7.3-20-13.3c-8.1-10.2-12.1-23.2-12.1-39.1c0-12.5,2.3-24.9,6.8-37
		c4.5-12.1,9.4-20.6,14.5-25.5c6.1-5.8,12.7-10.6,19.9-14.4c7.1-3.8,14.6-6.7,22.2-8.6c7.7-1.9,15.6-2.9,23.7-2.9
		c10.6,0,20.7,1.7,30.2,5.1c9.6,3.4,17.9,8.3,25.1,14.7l-68.8,82c6.1,0,11.9-1.3,17.3-3.8c5.5-2.5,10.5-6.2,15.1-10.9
		C762.6,394.2,766.7,388.7,770.3,382.3z M671.2,262.8l66.8-36.9l28.7,44.1l-81,15.4L671.2,262.8z M735.6,353.1
		c-4.1-2.1-8.3-3.1-12.5-3.1c-4.5,0-8.9,0.9-13.1,2.8c-4.2,1.8-7.2,4-9,6.5c-5.2,6.7-7.8,14-7.8,22c0,2.9,0.3,5.7,0.9,8.4
		c0.6,2.7,1.6,6.3,3,11L735.6,353.1z"/>
	<path class="st0" d="M880,207.3l52.4-23.5l3.1,169.6c0.7,4.3,1,9.3,1,14.8c0,4.8-0.2,8.4-0.5,10.8l1.5,76.8l-56.4,3v-7.6
		c-9.2,3.8-18.5,5.6-27.8,5.6c-7.2,0-13.9-1.1-20.2-3.3c-6.3-2.2-11.8-5.1-16.3-8.8c-7.4-6.2-13.2-14.5-17.4-25
		c-4.2-10.5-6.3-21.6-6.3-33.3c0-20.1,5.8-36.4,17.4-48.7c10-10.5,20.4-18.5,31-23.9c10.6-5.4,21.5-8.1,32.6-8.1
		c3.1,0,5.4,0.1,7,0.3L880,207.3z M881.1,329c-4.6,0.6-9.1,2-13.6,4.4c-4.5,2.3-8.3,5.1-11.5,8.3s-5.7,6.7-7.5,10.5
		c-1.8,3.8-2.7,7.5-2.7,11.2c0,7.6,3.6,13.8,10.8,18.5c6.3,4.3,12.8,6.4,19.3,6.4c1.3,0,3-0.2,5.1-0.5V361c-2.3,0-4.3-0.6-6-1.8
		c-2.5-2-3.8-5.8-3.8-11.5C871.3,339.6,874.6,333.3,881.1,329z"/>
	<path class="st0" d="M1056.5,382.3l30.2,36.4c-2.4,7-8.2,13.4-17.2,19.3c-9.1,5.8-19.8,10.5-32.3,13.8c-12.5,3.4-24.9,5.1-37.4,5.1
		c-11,0-20.9-1.5-29.5-4.4c-8.6-2.9-15.3-7.3-20-13.3c-8.1-10.2-12.1-23.2-12.1-39.1c0-12.5,2.3-24.9,6.8-37
		c4.5-12.1,9.4-20.6,14.5-25.5c6.1-5.8,12.7-10.6,19.9-14.4c7.1-3.8,14.6-6.7,22.2-8.6c7.7-1.9,15.6-2.9,23.7-2.9
		c10.6,0,20.7,1.7,30.2,5.1c9.6,3.4,17.9,8.3,25.1,14.7l-68.8,82c6.1,0,11.9-1.3,17.3-3.8c5.5-2.5,10.5-6.2,15.1-10.9
		C1048.9,394.2,1052.9,388.7,1056.5,382.3z M1021.8,353.1c-4.1-2.1-8.3-3.1-12.5-3.1c-4.5,0-8.9,0.9-13.1,2.8c-4.2,1.8-7.2,4-9,6.5
		c-5.2,6.7-7.8,14-7.8,22c0,2.9,0.3,5.7,0.9,8.4c0.6,2.7,1.6,6.3,3,11L1021.8,353.1z"/>
	<path class="st0" d="M1174,427.8l-30.3,39.2l-64.6,2l62.6-82.8l-70.8-91.6l68.6,3l34.4,45.5l34.3-45.5l68.8-3l-70.8,91.6l62.6,82.8
		l-64.8-2L1174,427.8z"/>
</g>
<g>
	<g>
		<path class="st5" d="M206.2,224.4c10.1-3.3,19.6-6.4,28.5-9.3c8.9-2.8,18.3-5.5,28.1-8.1c9.9-2.5,19.3-4.6,28.3-6.1
			c6.9-1.2,14-1.8,21.3-1.8c12.1,0,20,0.3,23.8,1c5.7,1.1,11,2.8,16.1,5.3c5.1,2.4,9.6,5.7,13.5,9.7c4,4.1,7.2,8.8,9.7,14.3
			c1,2.3,1.5,4.6,1.5,7.1c0,9.4-5.1,20.9-15.3,34.6c-10.2,13.7-20.5,25.6-30.8,35.8c-10.3,10.2-18,17.5-23.1,21.9l22.5,79
			l-32.8,23.7L240,267.4c-0.2,0-1,0.8-2.4,2.4c-1.4,1.6-3.3,3.7-5.6,6.2c-2.3,2.5-3.7,4.1-4.3,4.7c-0.3,0-1.1-1.8-2.4-5.4
			c-1.4-3.6-3.2-8.6-5.5-15c-2.3-6.4-4.9-13.5-7.8-21.3C209.1,231.3,207.2,226.4,206.2,224.4z M287.2,259.2l10.3,37
			c5.2-5.3,11.6-12.4,19.3-21.5c7.7-9.1,11.5-15.7,11.5-19.8c0-1.6-0.7-2.5-2-2.8c-3.8-0.8-7.5-1.3-11.1-1.3
			C304.1,250.8,294.8,253.6,287.2,259.2z"/>
		<path class="st6" d="M293.6,443.9L237,282c-2.5,2.8-3.4,3.7-3.8,4.1l-2.3,2.3h-3.2c-5.7,0-7.4-4.6-9.6-10.3
			c-1.4-3.7-3.3-8.7-5.6-15.1c-2.3-6.4-4.9-13.4-7.7-21.2c-3.6-9.9-5-13-5.5-13.9l-4-7.9l8.4-2.8c10.1-3.3,19.7-6.4,28.6-9.3
			c9-2.9,18.6-5.6,28.5-8.2c10-2.6,19.8-4.7,29-6.2c7.3-1.2,14.9-1.9,22.6-1.9c16.9,0,22.4,0.6,25.1,1.1c6.4,1.2,12.4,3.2,18.1,5.9
			c5.8,2.8,11.1,6.6,15.7,11.3c4.6,4.7,8.4,10.2,11.2,16.5c1.5,3.3,2.2,6.7,2.2,10.3c0,11.2-5.5,24-16.9,39.2
			c-10.4,13.9-21,26.3-31.6,36.7c-8.2,8.1-14.8,14.4-19.8,19l22.7,79.6L293.6,443.9z M240,259.8h5.5l55.9,159.6l20.1-14.5L299,326.4
			l3.7-3.2c4.9-4.3,12.6-11.6,22.8-21.6c10-9.9,20.1-21.6,30.1-35c11.4-15.3,13.8-24.7,13.8-30c0-1.4-0.3-2.7-0.8-4
			c-2.1-4.6-4.9-8.7-8.2-12.1c-3.3-3.4-7.1-6.1-11.4-8.1c-4.4-2.1-9.2-3.7-14.2-4.6c-2.2-0.4-7.9-0.9-22.4-0.9
			c-6.8,0-13.5,0.6-20,1.6c-8.8,1.5-18.1,3.5-27.7,5.9c-9.7,2.5-19,5.2-27.7,8c-6.5,2.1-13.4,4.3-20.6,6.7c0.8,1.9,1.7,4.4,2.8,7.3
			c2.9,7.8,5.5,14.9,7.8,21.4c1.2,3.3,2.3,6.2,3.2,8.8l1.7-1.9C234.4,261.9,236.3,259.8,240,259.8z M293.7,311l-15.3-54.9l4.3-3.1
			c8.9-6.6,19.8-9.9,32.5-9.9c4.2,0,8.5,0.5,12.8,1.4c4.7,0.9,8,5,8,10.3c0,6.2-4.1,13.8-13.3,24.8c-7.8,9.2-14.4,16.6-19.7,22
			L293.7,311z M296.2,262.6l5.1,18.2c3-3.3,6.2-7.1,9.7-11.2c4.3-5.1,6.7-8.6,8-11c-1.3-0.1-2.5-0.2-3.8-0.2
			C307.8,258.5,301.6,259.8,296.2,262.6z M324.6,259.5c0.1,0,0.2,0,0.3,0.1C324.8,259.6,324.7,259.6,324.6,259.5z"/>
	</g>
	<g>
		<path class="st5" d="M486,287.7c5.9,3.2,10.8,7.5,14.5,12.8c3.7,5.4,6.4,11.4,8.1,18.2c1.7,6.7,2.6,13.7,2.6,21
			c0,6-0.5,11.8-1.4,17.4c-1,5.6-2.3,10.7-3.9,15.4c-1.7,4.7-3.6,8.6-5.9,11.9c-5.3,7.9-10.9,14.6-16.9,20.3
			c-6,5.7-12.1,10.2-18.4,13.7c-6.3,3.5-12.5,6-18.6,7.6c-6.1,1.6-12.2,2.4-18.2,2.4c-7.1,0-13.8-1.1-20.2-3.3
			c-6.4-2.2-11.8-5.1-16.3-8.7c-7.4-6.2-13.2-14.5-17.4-25c-4.2-10.5-6.3-21.6-6.3-33.3c0-20.1,5.8-36.4,17.4-48.7
			c9.9-10.6,20.2-18.6,30.8-24c10.6-5.4,21.5-8.1,32.6-8.1c6.5,0,12.8,0.8,18.8,2.4C473.1,281.5,479.4,284.2,486,287.7z
			 M478.6,308.8c-1.4,6.3-4.5,11.9-9.2,16.8c-4.7,4.8-9.3,7.3-13.8,7.3c-2.3,0-4.3-0.6-6-1.8c-2.5-2-3.8-5.5-3.8-10.5
			c0-3.8,1.3-7.6,3.8-11.4c2.5-3.8,6.6-6.7,12.1-8.9c-5.5,0-10.8,1-16,3.1c-5.1,2.1-9.5,4.8-13.2,8.1c-3.7,3.3-6.6,7-8.8,11.1
			c-2.2,4.1-3.3,8.3-3.3,12.5c0,7.8,3.6,13.9,10.8,18.5c6.7,4.3,13,6.4,19,6.4c5.9,0,11.2-2,15.8-5.9c4.6-4,8.1-9.1,10.5-15.3
			c2.4-6.2,3.6-12.4,3.6-18.5C480.1,316.1,479.6,312.3,478.6,308.8z"/>
		<path class="st6" d="M427.7,436.2c-7.9,0-15.6-1.3-22.7-3.7c-7.2-2.5-13.4-5.8-18.6-10c-8.5-7.1-15.1-16.5-19.8-28.2
			c-4.5-11.3-6.8-23.5-6.8-36.1c0-22.1,6.6-40.2,19.5-54c10.5-11.2,21.6-19.8,32.9-25.6c11.6-5.9,23.8-8.9,36-8.9
			c7.2,0,14.2,0.9,20.8,2.7c6.5,1.8,13.5,4.6,20.5,8.5c7,3.7,12.8,8.9,17.1,15.2c4.2,6.1,7.3,13.1,9.3,20.6c1.9,7.3,2.8,15,2.8,22.9
			c0,6.4-0.5,12.7-1.6,18.7c-1,6-2.5,11.6-4.3,16.7c-1.9,5.3-4.2,9.9-6.8,13.7c-5.5,8.2-11.6,15.5-18,21.5
			c-6.5,6.1-13.2,11.1-20,14.9c-6.8,3.8-13.6,6.6-20.4,8.3C441.2,435.3,434.4,436.2,427.7,436.2z M448.3,285.2
			c-9.8,0-19.6,2.4-29.1,7.2c-9.8,5-19.4,12.5-28.7,22.4c-10.3,11-15.3,25.2-15.3,43.5c0,10.7,1.9,20.9,5.7,30.4
			c3.7,9.2,8.8,16.6,15.2,21.9c3.7,2.9,8.4,5.4,13.9,7.4c10.3,3.6,22.1,3.9,34,0.7c5.5-1.5,11.2-3.8,16.9-6.9
			c5.7-3.1,11.3-7.4,16.9-12.6c5.6-5.3,10.9-11.6,15.8-19c1.9-2.8,3.6-6.2,5-10.2c1.5-4.2,2.7-9,3.6-14.1c0.9-5.1,1.3-10.6,1.3-16.1
			c0-6.6-0.8-13-2.3-19.1c-1.5-5.8-3.8-11.1-7-15.7c-1.8-2.6-3.8-4.8-6.2-6.8l-3.9,1.5l2,6.9c1.2,4.2,1.8,8.8,1.8,13.6
			c0,7-1.4,14.2-4.2,21.3c-2.9,7.4-7.1,13.5-12.7,18.3c-6,5.2-13,7.8-20.8,7.8c-7.5,0-15.3-2.6-23.2-7.6c-9.4-6-14.3-14.6-14.3-25
			c0-5.4,1.4-10.8,4.2-16.1c2.6-4.9,6.1-9.4,10.5-13.2c4.3-3.9,9.5-7.1,15.5-9.5c6-2.5,12.4-3.7,18.9-3.7h12.7l0.4-1.8
			c-3.3-1.5-6.6-2.6-9.7-3.5C459.7,285.9,454.1,285.2,448.3,285.2z M438.4,316.5c-0.3,0.2-0.5,0.4-0.8,0.7c-3,2.7-5.4,5.7-7.2,9.1
			c-1.6,3-2.4,5.9-2.4,8.8c0,5.1,2.2,8.9,7.2,12.1c10.2,6.5,19,6.9,25.7,1.1c3.7-3.2,6.4-7.2,8.4-12.3c0-0.1,0.1-0.2,0.1-0.3
			c-4.5,3.2-9.2,4.8-13.9,4.8c-3.8,0-7.3-1-10.3-3l-0.5-0.4c-4.4-3.5-6.6-9.1-6.6-16.5C438.1,319.2,438.2,317.9,438.4,316.5z
			 M454.2,324.9c0.3,0.1,0.7,0.2,1.3,0.2c2.9,0,6.1-2.7,8.3-4.9c3.7-3.8,6.1-8.1,7.2-13.1l0.6-2.5l-7.2,2.8c-4,1.6-6.9,3.6-8.5,6.1
			c-1.7,2.5-2.5,4.8-2.5,7.1C453.5,323.2,453.9,324.5,454.2,324.9z"/>
	</g>
	<g>
		<path class="st5" d="M505.2,214.1l63.6-26.7l9.3,144.7l52.4-28.7l54.4,8.1L614,365.9l66.8,50.4l3,50.2l-98.5-70.8l3.1,61.5
			l-59.6,1.1l-11.3-217.6l-18.4,4.1L505.2,214.1z"/>
		<path class="st6" d="M692.4,482.2l-98.6-70.9l2.7,53.5l-75,1.4l-11.2-215.9l-21.1,4.7l9.2-46.4l77.4-32.4l9.2,143.4l44-24.1
			l74.8,11.2l-77.2,59.2l61.5,46.4L692.4,482.2z M576.8,380.1l98.3,70.7l-1.8-30.5l-72-54.3l64.5-49.5l-33.9-5.1l-60.7,33.2
			l-9.4-146L512,219.6l-3,15.2l15.8-3.5l11.4,219.2l44.2-0.8L576.8,380.1z"/>
	</g>
	<g>
		<path class="st5" d="M786.9,354.1l30.2,36.4c-2.4,7-8.2,13.4-17.2,19.3c-9.1,5.8-19.8,10.5-32.3,13.8c-12.5,3.4-24.9,5.1-37.4,5.1
			c-11,0-20.9-1.5-29.5-4.4c-8.6-2.9-15.3-7.3-20-13.3c-8.1-10.2-12.1-23.2-12.1-39.1c0-12.5,2.3-24.9,6.8-37
			c4.5-12.1,9.4-20.6,14.5-25.5c6.1-5.8,12.7-10.6,19.9-14.4c7.1-3.8,14.6-6.7,22.2-8.6c7.7-1.9,15.6-2.9,23.7-2.9
			c10.6,0,20.7,1.7,30.2,5.1c9.6,3.4,17.9,8.3,25.1,14.7l-68.8,82c6.1,0,11.9-1.3,17.3-3.8c5.5-2.5,10.5-6.2,15.1-10.9
			C779.2,366,783.3,360.5,786.9,354.1z M687.8,234.6l66.8-36.9l28.7,44.1l-81,15.4L687.8,234.6z M752.2,324.9
			c-4.1-2.1-8.3-3.1-12.5-3.1c-4.5,0-8.9,0.9-13.1,2.8c-4.2,1.8-7.2,4-9,6.5c-5.2,6.7-7.8,14-7.8,22c0,2.9,0.3,5.7,0.9,8.4
			c0.6,2.7,1.6,6.3,3,11L752.2,324.9z"/>
		<path class="st6" d="M730.2,436.5c-11.8,0-22.6-1.6-32-4.8c-10-3.4-18-8.7-23.6-15.8c-9.2-11.5-13.8-26.3-13.8-43.8
			c0-13.4,2.5-26.8,7.3-39.7c5-13.4,10.4-22.7,16.4-28.4c6.6-6.2,13.8-11.5,21.5-15.6c7.7-4.1,15.7-7.3,24-9.3
			c8.3-2.1,16.8-3.1,25.5-3.1c11.4,0,22.5,1.9,32.8,5.5c10.5,3.7,19.8,9.2,27.7,16.2l5.5,5l-33.9,40.4l38,45.9l-1.4,4.1
			c-3,8.6-9.8,16.5-20.3,23.2c-9.7,6.3-21.3,11.2-34.5,14.8C756.5,434.7,743.2,436.5,730.2,436.5z M755.6,291.3
			c-7.4,0-14.8,0.9-21.8,2.7c-7,1.8-13.9,4.4-20.5,8c-6.5,3.5-12.6,7.9-18.2,13.2c-2.9,2.7-7.4,8.9-12.5,22.6
			c-4.2,11.2-6.3,22.8-6.3,34.3c0,14.2,3.4,25.4,10.5,34.3c3.7,4.7,9.3,8.4,16.4,10.8c7.8,2.6,16.9,4,27,4c11.7,0,23.6-1.6,35.4-4.8
			c11.7-3.2,21.8-7.5,30.2-12.9c5.8-3.7,9.9-7.6,12.4-11.7l-20.4-24.6c-2.4,3.2-4.9,6.2-7.5,9c-5.2,5.4-11.1,9.6-17.4,12.5
			c-6.5,3-13.4,4.5-20.6,4.5h-16.5l74.3-88.6c-5-3.5-10.6-6.4-16.7-8.6C774.6,292.9,765.3,291.3,755.6,291.3z M775.8,357.3l-7.1,8.5
			c0.2-0.2,0.3-0.3,0.5-0.5C771.5,362.9,773.7,360.3,775.8,357.3z M710.6,388.6l-4.2-13.9c-1.5-4.9-2.5-8.7-3.2-11.6
			c-0.7-3.2-1.1-6.6-1.1-10c0-9.7,3.1-18.6,9.3-26.6c2.6-3.6,6.6-6.6,12.1-9c10.3-4.5,21.8-4.7,32.2,0.6l8.4,4.3L710.6,388.6z
			 M738.6,329.5c-3.1,0.1-6,0.8-9,2.1c-3.8,1.6-5.2,3.1-5.7,3.9l-0.2,0.3c-4.1,5.3-6.2,11-6.2,17.3c0,0.8,0,1.6,0.1,2.4L738.6,329.5
			z M698.6,265.7L677,231.9l80.2-44.4l38.8,59.7L698.6,265.7z M698.7,237.4l7.2,11.3l64.7-12.3l-18.5-28.5L698.7,237.4z"/>
	</g>
	<g>
		<path class="st5" d="M896.6,179.1l52.4-23.5l3.1,169.6c0.7,4.3,1,9.3,1,14.8c0,4.8-0.2,8.4-0.5,10.8l1.5,76.8l-56.4,3v-7.6
			c-9.2,3.8-18.5,5.6-27.8,5.6c-7.2,0-13.9-1.1-20.2-3.3c-6.3-2.2-11.8-5.1-16.3-8.8c-7.4-6.2-13.2-14.5-17.4-25
			c-4.2-10.5-6.3-21.6-6.3-33.3c0-20.1,5.8-36.4,17.4-48.7c10-10.5,20.4-18.5,31-23.9c10.6-5.4,21.5-8.1,32.6-8.1
			c3.1,0,5.4,0.1,7,0.3L896.6,179.1z M897.7,300.8c-4.6,0.6-9.1,2-13.6,4.4c-4.5,2.3-8.3,5.1-11.5,8.3s-5.7,6.7-7.5,10.5
			c-1.8,3.8-2.7,7.5-2.7,11.2c0,7.6,3.6,13.8,10.8,18.5c6.3,4.3,12.8,6.4,19.3,6.4c1.3,0,3-0.2,5.1-0.5v-26.7c-2.3,0-4.3-0.6-6-1.8
			c-2.5-2-3.8-5.8-3.8-11.5C888,311.4,891.2,305.1,897.7,300.8z"/>
		<path class="st6" d="M890.1,438.6v-5.1c-14.6,3.9-29.8,3.5-42.8-1c-7.1-2.5-13.4-5.8-18.6-10c-8.5-7.1-15.1-16.5-19.7-28.1
			c-4.5-11.3-6.8-23.5-6.8-36.1c0-22.1,6.6-40.2,19.5-54c10.6-11.1,21.7-19.7,33.1-25.5c11.4-5.8,23.3-8.9,35.4-9l-1.1-95.6
			l67.6-30.4l3.3,180.7c0.7,4.6,1,9.8,1,15.4c0,4.8-0.2,8.5-0.5,11.2l1.6,83.6L890.1,438.6z M905.4,411.4v11l40.8-2.2l-1.4-70
			l0.1-0.6c0.2-1.4,0.4-4.1,0.4-9.7c0-5.1-0.3-9.7-0.9-13.6l-0.1-1l-2.9-158l-37.1,16.7l1.2,102.2l-8.6-0.9
			c-0.9-0.1-2.7-0.2-6.2-0.2c-9.8,0-19.6,2.5-29.1,7.3c-9.8,5-19.6,12.5-28.9,22.4c-10.3,10.9-15.3,25.2-15.3,43.4
			c0,10.7,1.9,20.9,5.7,30.4c3.7,9.2,8.8,16.6,15.2,21.9c3.8,3,8.5,5.5,13.9,7.4c5.5,1.9,11.4,2.8,17.7,2.8c8.3,0,16.7-1.7,24.9-5.1
			L905.4,411.4z M892.6,367.7c-8,0-16-2.6-23.6-7.7c-9.3-6.1-14.2-14.8-14.2-24.9c0-4.8,1.2-9.7,3.4-14.5c2.2-4.6,5.2-8.8,9-12.6
			c3.7-3.7,8.2-7,13.3-9.6c5.3-2.8,10.7-4.5,16.2-5.2l32.5-4.1L902,307.2c-4.4,2.9-6.3,6.7-6.3,12.4c0,3.4,0.6,4.9,0.8,5.4
			c0.3,0.1,0.7,0.2,1.3,0.2h7.7v41l-6.5,1C896.3,367.5,894.3,367.7,892.6,367.7z M880.4,316.8c-0.8,0.7-1.6,1.4-2.3,2.1
			c-2.5,2.5-4.5,5.3-5.9,8.3c-1.3,2.8-2,5.4-2,7.9c0,3.1,0.8,7.8,7.3,12.1c4.3,2.9,8.4,4.5,12.5,5v-13.3c-0.9-0.4-1.8-0.9-2.6-1.4
			l-0.5-0.4c-4.4-3.5-6.6-9.4-6.6-17.5C880.3,318.6,880.3,317.7,880.4,316.8z"/>
	</g>
	<g>
		<path class="st5" d="M1073.2,354.1l30.2,36.4c-2.4,7-8.2,13.4-17.2,19.3c-9.1,5.8-19.8,10.5-32.3,13.8
			c-12.5,3.4-24.9,5.1-37.4,5.1c-11,0-20.9-1.5-29.5-4.4c-8.6-2.9-15.3-7.3-20-13.3c-8.1-10.2-12.1-23.2-12.1-39.1
			c0-12.5,2.3-24.9,6.8-37c4.5-12.1,9.4-20.6,14.5-25.5c6.1-5.8,12.7-10.6,19.9-14.4c7.1-3.8,14.6-6.7,22.2-8.6
			c7.7-1.9,15.6-2.9,23.7-2.9c10.6,0,20.7,1.7,30.2,5.1c9.6,3.4,17.9,8.3,25.1,14.7l-68.8,82c6.1,0,11.9-1.3,17.3-3.8
			c5.5-2.5,10.5-6.2,15.1-10.9C1065.5,366,1069.6,360.5,1073.2,354.1z M1038.5,324.9c-4.1-2.1-8.3-3.1-12.5-3.1
			c-4.5,0-8.9,0.9-13.1,2.8c-4.2,1.8-7.2,4-9,6.5c-5.2,6.7-7.8,14-7.8,22c0,2.9,0.3,5.7,0.9,8.4c0.6,2.7,1.6,6.3,3,11L1038.5,324.9z
			"/>
		<path class="st6" d="M1016.5,436.5c-11.8,0-22.6-1.6-32-4.8c-10-3.4-18-8.7-23.6-15.8c-9.2-11.5-13.8-26.3-13.8-43.8
			c0-13.4,2.5-26.8,7.3-39.7c5-13.4,10.4-22.7,16.4-28.4c6.6-6.2,13.8-11.5,21.5-15.6c7.7-4.1,15.7-7.3,24-9.3
			c8.3-2.1,16.9-3.1,25.5-3.1c11.4,0,22.5,1.9,32.8,5.5c10.5,3.7,19.8,9.2,27.7,16.2l5.5,5l-33.9,40.4l38,45.9l-1.4,4.1
			c-3,8.6-9.8,16.5-20.3,23.2c-9.7,6.3-21.3,11.2-34.5,14.8C1042.8,434.7,1029.5,436.5,1016.5,436.5z M1041.9,291.3
			c-7.4,0-14.8,0.9-21.8,2.7c-7,1.8-13.9,4.4-20.5,8c-6.5,3.5-12.6,7.9-18.2,13.2c-2.9,2.7-7.4,8.9-12.5,22.6
			c-4.2,11.2-6.3,22.8-6.3,34.3c0,14.2,3.4,25.4,10.5,34.3c3.7,4.7,9.3,8.4,16.4,10.8c7.8,2.6,16.9,4,27,4c11.7,0,23.6-1.6,35.4-4.8
			c11.7-3.2,21.8-7.5,30.2-12.9c5.8-3.7,9.9-7.6,12.4-11.7l-20.4-24.6c-2.4,3.2-4.9,6.2-7.5,9c-5.2,5.4-11.1,9.6-17.4,12.5
			c-6.5,3-13.4,4.5-20.6,4.5H1012l74.3-88.6c-5-3.5-10.6-6.4-16.7-8.6C1060.9,292.9,1051.6,291.3,1041.9,291.3z M1062.1,357.3
			l-7.1,8.5c0.2-0.2,0.3-0.3,0.5-0.5C1057.8,362.9,1060,360.3,1062.1,357.3z M996.9,388.6l-4.2-13.9c-1.5-4.9-2.5-8.7-3.2-11.6
			c-0.7-3.2-1.1-6.6-1.1-10c0-9.7,3.1-18.6,9.3-26.6c2.6-3.6,6.6-6.6,12.1-9c10.3-4.5,21.8-4.7,32.2,0.6l8.4,4.3L996.9,388.6z
			 M1024.9,329.5c-3.1,0.1-6,0.8-9,2.1c-3.8,1.6-5.2,3.1-5.7,3.9l-0.2,0.3c-4.1,5.3-6.2,11-6.2,17.3c0,0.8,0,1.6,0.1,2.4
			L1024.9,329.5z"/>
	</g>
	<g>
		<path class="st5" d="M1190.7,399.6l-30.3,39.2l-64.6,2l62.6-82.8l-70.8-91.6l68.6,3l34.4,45.5l34.3-45.5l68.8-3L1223,358
			l62.6,82.8l-64.8-2L1190.7,399.6z"/>
		<path class="st6" d="M1079.9,449l68.8-90.9l-77.3-100l88.8,3.9l30.5,40.2l30.4-40.2l88.9-3.9l-77.3,100l68.8,90.9l-84.5-2.6
			l-26.3-34.2l-26.4,34.2L1079.9,449z M1224.7,431.2l45.1,1.4l-56.5-74.7l64.2-83.1l-48.6,2.1l-38.3,50.7l-38.4-50.7l-48.5-2.1
			L1168,358l-56.5,74.7l44.9-1.4l34.2-44.2L1224.7,431.2z"/>
	</g>
</g>
</svg>
